HIERARCHY
ROOT Hips
{
    OFFSET   0.000000   0.000000   0.000000
    CHANNELS 6 Xposition Yposition Zposition Zrotation Xrotation Yrotation
    JOINT Chest
    {
        OFFSET   0.000000   8.007230   0.000000
        CHANNELS 3 Zrotation Xrotation Yrotation
        JOINT Chest2
        {
            OFFSET   0.000000  22.077100   0.000000
            CHANNELS 3 Zrotation Xrotation Yrotation
            JOINT Neck
            {
                OFFSET   0.000000  23.255100   0.000000
                CHANNELS 3 Zrotation Xrotation Yrotation
                JOINT Head
                {
                    OFFSET   0.000000  14.370100   1.956600
                    CHANNELS 3 Zrotation Xrotation Yrotation
                    End Site
                    {
                        OFFSET   0.000000  19.566000   0.000000
                    }
                }
            }
            JOINT LeftCollar
            {
                OFFSET   3.911900  19.017000  -0.467063
                CHANNELS 3 Zrotation Xrotation Yrotation
                JOINT LeftShoulder
                {
                    OFFSET  10.383700   0.000000   0.000000
                    CHANNELS 3 Zrotation Xrotation Yrotation
                    JOINT LeftElbow
                    {
                        OFFSET  26.662100   0.001193   0.000980
                        CHANNELS 3 Zrotation Xrotation Yrotation
                        JOINT LeftWrist
                        {
                            OFFSET  28.869000  -0.000059  -0.000082
                            CHANNELS 3 Zrotation Xrotation Yrotation
                            JOINT LeftFinger0
                            {
                                OFFSET   2.044650  -2.323450   3.252850
                                CHANNELS 3 Zrotation Xrotation Yrotation
                                JOINT LeftFinger01
                                {
                                    OFFSET   3.088130   0.000000   0.000000
                                    CHANNELS 3 Zrotation Xrotation Yrotation
                                    JOINT LeftFinger02
                                    {
                                        OFFSET   2.639460   0.000000   0.000000
                                        CHANNELS 3 Zrotation Xrotation Yrotation
                                        End Site
                                        {
                                            OFFSET   2.582190   0.000000   0.000000
                                        }
                                    }
                                }
                            }
                            JOINT LeftFinger1
                            {
                                OFFSET   8.364480   0.000000   3.252850
                                CHANNELS 3 Zrotation Xrotation Yrotation
                                JOINT LeftFinger11
                                {
                                    OFFSET   4.646930   0.000000   0.000000
                                    CHANNELS 3 Zrotation Xrotation Yrotation
                                    JOINT LeftFinger12
                                    {
                                        OFFSET   2.323470   0.000000   0.000000
                                        CHANNELS 3 Zrotation Xrotation Yrotation
                                        End Site
                                        {
                                            OFFSET   2.273050   0.000000   0.000000
                                        }
                                    }
                                }
                            }
                            JOINT LeftFinger2
                            {
                                OFFSET   8.364490   0.000016   1.078090
                                CHANNELS 3 Zrotation Xrotation Yrotation
                                JOINT LeftFinger21
                                {
                                    OFFSET   5.111610   0.000000   0.000000
                                    CHANNELS 3 Zrotation Xrotation Yrotation
                                    JOINT LeftFinger22
                                    {
                                        OFFSET   2.788150   0.000016   0.000000
                                        CHANNELS 3 Zrotation Xrotation Yrotation
                                        End Site
                                        {
                                            OFFSET   2.727660   0.000000   0.000000
                                        }
                                    }
                                }
                            }
                            JOINT LeftFinger3
                            {
                                OFFSET   7.899780   0.000015  -1.078090
                                CHANNELS 3 Zrotation Xrotation Yrotation
                                JOINT LeftFinger31
                                {
                                    OFFSET   4.646930   0.000000   0.000000
                                    CHANNELS 3 Zrotation Xrotation Yrotation
                                    JOINT LeftFinger32
                                    {
                                        OFFSET   2.323470   0.000000   0.000000
                                        CHANNELS 3 Zrotation Xrotation Yrotation
                                        End Site
                                        {
                                            OFFSET   2.273050   0.000000   0.000000
                                        }
                                    }
                                }
                            }
                            JOINT LeftFinger4
                            {
                                OFFSET   7.435090   0.000000  -3.252850
                                CHANNELS 3 Zrotation Xrotation Yrotation
                                JOINT LeftFinger41
                                {
                                    OFFSET   3.717550   0.000000   0.000000
                                    CHANNELS 3 Zrotation Xrotation Yrotation
                                    JOINT LeftFinger42
                                    {
                                        OFFSET   1.858770   0.000000   0.000000
                                        CHANNELS 3 Zrotation Xrotation Yrotation
                                        End Site
                                        {
                                            OFFSET   1.818440   0.000000   0.000000
                                        }
                                    }
                                }
                            }
                        }
                    }
                }
            }
            JOINT RightCollar
            {
                OFFSET  -3.911910  19.017000  -0.467062
                CHANNELS 3 Zrotation Xrotation Yrotation
                JOINT RightShoulder
                {
                    OFFSET -10.383700   0.000014   0.000000
                    CHANNELS 3 Zrotation Xrotation Yrotation
                    JOINT RightElbow
                    {
                        OFFSET -26.662100   0.001225   0.001091
                        CHANNELS 3 Zrotation Xrotation Yrotation
                        JOINT RightWrist
                        {
                            OFFSET -28.869000  -0.000020  -0.000085
                            CHANNELS 3 Zrotation Xrotation Yrotation
                            JOINT RightFinger0
                            {
                                OFFSET  -2.044650  -2.323490   3.252850
                                CHANNELS 3 Zrotation Xrotation Yrotation
                                JOINT RightFinger01
                                {
                                    OFFSET  -3.088130   0.000000   0.000000
                                    CHANNELS 3 Zrotation Xrotation Yrotation
                                    JOINT RightFinger02
                                    {
                                        OFFSET  -2.639460   0.000000   0.000000
                                        CHANNELS 3 Zrotation Xrotation Yrotation
                                        End Site
                                        {
                                            OFFSET  -2.582190   0.000000   0.000000
                                        }
                                    }
                                }
                            }
                            JOINT RightFinger1
                            {
                                OFFSET  -8.364480   0.000000   3.252850
                                CHANNELS 3 Zrotation Xrotation Yrotation
                                JOINT RightFinger11
                                {
                                    OFFSET  -4.646930   0.000000   0.000000
                                    CHANNELS 3 Zrotation Xrotation Yrotation
                                    JOINT RightFinger12
                                    {
                                        OFFSET  -2.323470   0.000000   0.000000
                                        CHANNELS 3 Zrotation Xrotation Yrotation
                                        End Site
                                        {
                                            OFFSET  -2.273050   0.000000   0.000000
                                        }
                                    }
                                }
                            }
                            JOINT RightFinger2
                            {
                                OFFSET  -8.364480   0.000000   1.078090
                                CHANNELS 3 Zrotation Xrotation Yrotation
                                JOINT RightFinger21
                                {
                                    OFFSET  -5.111620   0.000000   0.000000
                                    CHANNELS 3 Zrotation Xrotation Yrotation
                                    JOINT RightFinger22
                                    {
                                        OFFSET  -2.788160   0.000000   0.000000
                                        CHANNELS 3 Zrotation Xrotation Yrotation
                                        End Site
                                        {
                                            OFFSET  -2.727660   0.000000   0.000000
                                        }
                                    }
                                }
                            }
                            JOINT RightFinger3
                            {
                                OFFSET  -7.899780   0.000000  -1.078090
                                CHANNELS 3 Zrotation Xrotation Yrotation
                                JOINT RightFinger31
                                {
                                    OFFSET  -4.646930   0.000000   0.000000
                                    CHANNELS 3 Zrotation Xrotation Yrotation
                                    JOINT RightFinger32
                                    {
                                        OFFSET  -2.323470   0.000000   0.000000
                                        CHANNELS 3 Zrotation Xrotation Yrotation
                                        End Site
                                        {
                                            OFFSET  -2.273050   0.000000   0.000000
                                        }
                                    }
                                }
                            }
                            JOINT RightFinger4
                            {
                                OFFSET  -7.435090   0.000000  -3.252850
                                CHANNELS 3 Zrotation Xrotation Yrotation
                                JOINT RightFinger41
                                {
                                    OFFSET  -3.717550   0.000000   0.000000
                                    CHANNELS 3 Zrotation Xrotation Yrotation
                                    JOINT RightFinger42
                                    {
                                        OFFSET  -1.858760   0.000000   0.000000
                                        CHANNELS 3 Zrotation Xrotation Yrotation
                                        End Site
                                        {
                                            OFFSET  -1.818440   0.000000   0.000000
                                        }
                                    }
                                }
                            }
                        }
                    }
                }
            }
        }
    }
    JOINT LeftHip
    {
        OFFSET   9.783030   0.000000   0.000000
        CHANNELS 3 Zrotation Xrotation Yrotation
        JOINT LeftKnee
        {
            OFFSET   0.000063 -41.789100   0.000608
            CHANNELS 3 Zrotation Xrotation Yrotation
            JOINT LeftAnkle
            {
                OFFSET   0.000048 -41.133200  -0.000184
                CHANNELS 3 Zrotation Xrotation Yrotation
                JOINT LeftToe
                {
                    OFFSET   0.000000  -6.358960  14.674500
                    CHANNELS 3 Zrotation Xrotation Yrotation
                    End Site
                    {
                        OFFSET   0.000000   0.000000   3.913200
                    }
                }
            }
        }
    }
    JOINT RightHip
    {
        OFFSET  -9.783030   0.000000   0.000000
        CHANNELS 3 Zrotation Xrotation Yrotation
        JOINT RightKnee
        {
            OFFSET   0.000071 -41.789100   0.001239
            CHANNELS 3 Zrotation Xrotation Yrotation
            JOINT RightAnkle
            {
                OFFSET   0.000037 -41.133200  -0.000166
                CHANNELS 3 Zrotation Xrotation Yrotation
                JOINT RightToe
                {
                    OFFSET   0.000000  -6.358960  14.674500
                    CHANNELS 3 Zrotation Xrotation Yrotation
                    End Site
                    {
                        OFFSET   0.000000   0.000000   3.913200
                    }
                }
            }
        }
    }
}
MOTION
Frames: 6
Frame Time:   0.016667
 -0.986154  89.573600  -1.036490  -2.575300  -5.406180  -5.182360   0.489840   4.012390   0.251211   0.965547   8.026750   0.469658   1.178770  -0.111561  -0.004571   1.936610  -0.225694   5.739080  -2.834410  -0.476196   2.629680 -74.092300  23.280600  -2.018220  -1.902710  -6.682450 -17.442500  15.074100  -9.444810   4.443660  36.496800  30.636200 -61.018100 -34.260000   0.001138   0.000825 -12.130000   0.004101  -0.002060 -30.840200   5.248840  -8.710960 -25.560200  -0.004800  -0.008432 -17.894300  -0.002546  -0.013223 -28.709100   2.259320  -4.116600 -42.062500  -0.001931  -0.001529 -28.013700  -0.003675  -0.004395 -28.586100   1.823860  -3.342560 -38.007600  -0.001865   0.006317 -25.313100  -0.004566  -0.003787 -32.939100   0.697925  -1.074130 -49.418500  -0.005492  -0.003296 -32.912800   0.000971  -0.005139   8.235020   1.471950   8.162520  67.277500  19.989100  -5.419100  -3.687020   0.590200  18.829800 -10.824700 -15.798500   3.362730 -35.926900  25.939400  60.024600  30.802900  -0.002127   0.001348  10.401500  -0.000779   0.001799  30.188200   9.191180  15.350400  25.715900   0.002567  -0.014788  18.001100  -0.007938  -0.006152  28.465100   4.776710   8.731140  43.305200  -0.004259  -0.005341  28.841300  -0.012406  -0.002758  28.389200   1.994270   3.683140  35.648300  -0.000916  -0.003467  23.741800  -0.007042  -0.015246  35.921100   0.019423   0.026148  53.881900  -0.004879  -0.004715  35.885300  -0.003310  -0.003086   2.503940   8.045370   4.242700   0.732163   0.070325   7.878060  -1.514280  -3.093710   1.858210  -0.000000   0.000000   0.000000   2.409130   6.742350   0.724731   0.290917   1.654690  -6.920490  -1.063320  -3.514890   0.115622   0.000000   0.000000   0.000000
 -0.983087  89.573600  -1.026810  -2.584770  -5.430750  -5.193350   0.487289   4.032340   0.251475   0.960401   8.066640   0.470133   1.173760  -0.105594  -0.004551   1.928320  -0.213770   5.771340  -2.823810  -0.492657   2.640740 -74.090800  23.281000  -2.022250  -1.902990  -6.645870 -17.455800  15.070200  -9.434970   4.443790  36.497800  30.654200 -61.037400 -34.271700   0.001096   0.000815 -12.135900   0.004096  -0.002076 -30.846200   5.240220  -8.695290 -25.564000  -0.004771  -0.008448 -17.896000  -0.002525  -0.013241 -28.710700   2.248130  -4.096200 -42.051100  -0.001882  -0.001525 -28.006100  -0.003647  -0.004365 -28.587200   1.815350  -3.327180 -38.007900  -0.001814   0.006317 -25.313300  -0.004533  -0.003759 -32.939300   0.697859  -1.074030 -49.418800  -0.005468  -0.003275 -32.913000   0.000970  -0.005126   8.301980   1.384100   8.201600  67.307800  19.983400  -5.559880  -3.895130   0.767829  19.224100 -10.736700 -15.605600   3.383670 -35.942400  25.936300  60.134600  30.718400  -0.002203   0.001432  10.359300  -0.000811   0.001859  30.150200   9.235500  15.440800  25.696200   0.002566  -0.014800  17.987300  -0.007947  -0.006103  28.445800   4.802930   8.784860  43.195900  -0.004246  -0.005300  28.768500  -0.012424  -0.002819  28.378700   2.017690   3.727490  35.556100  -0.000909  -0.003445  23.680300  -0.007051  -0.015246  35.916000   0.020705   0.027674  53.874400  -0.004827  -0.004668  35.880300  -0.003278  -0.003062   2.505610   8.103680   4.243360   0.724749   0.022122   7.886230  -1.506440  -3.081770   1.865390  -0.000000   0.000000  -0.000000   2.410590   6.777170   0.724561   0.290275   1.650030  -6.920520  -1.056530  -3.516070   0.129231  -0.000000   0.000000  -0.000000
 -0.976713  89.573600  -1.010980  -2.603160  -5.477290  -5.217630   0.484659   4.070020   0.251746   0.954961   8.141990   0.470651   1.161400  -0.098032  -0.004499   1.907980  -0.198650   5.829220  -2.809090  -0.519411   2.651810 -74.086700  23.284000  -2.032760  -1.909740  -6.594600 -17.468700  15.060200  -9.415170   4.443800  36.499600  30.687300 -61.072800 -34.290800   0.001007   0.000769 -12.145400   0.004077  -0.002116 -30.856900   5.228800  -8.672640 -25.571200  -0.004703  -0.008485 -17.899800  -0.002479  -0.013289 -28.713100   2.231650  -4.066160 -42.029200  -0.001775  -0.001522 -27.991500  -0.003583  -0.004292 -28.588600   1.803500  -3.305210 -38.008300  -0.001696   0.006316 -25.313600  -0.004457  -0.003697 -32.939500   0.697737  -1.073870 -49.419100  -0.005413  -0.003223 -32.913200   0.000969  -0.005088   8.404300   1.242250   8.261140  67.322900  19.966800  -5.800480  -4.286150   1.086420  19.996700 -10.522200 -15.205000   3.483360 -36.011900  25.990200  60.339500  30.548500  -0.002331   0.001516  10.274300  -0.000862   0.001963  30.045900   9.306260  15.612900  25.630800   0.002565  -0.014822  17.941500  -0.007965  -0.006008  28.418700   4.853370   8.885170  42.938100  -0.004219  -0.005229  28.596800  -0.012462  -0.003246  28.355100   2.065490   3.818860  35.352300  -0.000893  -0.003406  23.544600  -0.007061  -0.015247  35.880700   0.029681   0.038356  53.821800  -0.004711  -0.004567  35.845300  -0.003213  -0.003006   2.510990   8.188650   4.244590   0.717351  -0.026078   7.900000  -1.496800  -3.069820   1.877440  -0.000000   0.000000   0.000000   2.415790   6.839490   0.724433   0.289159   1.645370  -6.920560  -1.044170  -3.517870   0.157102   0.000000   0.000000   0.000000
 -0.969061  89.573600  -0.999004  -2.623020  -5.525230  -5.248480   0.486525   4.107710   0.250457   0.958682   8.217380   0.467967   1.142270  -0.096172  -0.004411   1.876790  -0.194914   5.878110  -2.803490  -0.536366   2.651640 -74.078300  23.323800  -2.050400  -1.928250  -6.572020 -17.463500  15.045300  -9.392800   4.442850  36.500100  30.719500 -61.107500 -34.305600   0.000886   0.000654 -12.152800   0.004038  -0.002177 -30.867600   5.225590  -8.660370 -25.579700  -0.004598  -0.008540 -17.905600  -0.002417  -0.013368 -28.713500   2.222990  -4.050360 -42.007800  -0.001627  -0.001522 -27.977200  -0.003489  -0.004180 -28.589100   1.798670  -3.294210 -38.006800  -0.001529   0.006318 -25.312600  -0.004343  -0.003607 -32.938600   0.697575  -1.073710 -49.417800  -0.005335  -0.003145 -32.912300   0.000969  -0.005024   8.474540   1.140880   8.292170  67.267400  19.930100  -6.007870  -4.683350   1.388050  20.836300 -10.207800 -14.725600   3.706180 -36.157100  26.165900  60.563000  30.346400  -0.002462   0.001514  10.173200  -0.000903   0.002079  29.872900   9.369720  15.808600  25.510200   0.002550  -0.014848  17.857100  -0.007987  -0.005883  28.408100   4.913640   8.997800  42.570900  -0.004184  -0.005150  28.352200  -0.012513  -0.005027  28.323600   2.128880   3.941070  35.083900  -0.000874  -0.003361  23.365900  -0.007061  -0.015252  35.787000   0.052672   0.069209  53.681600  -0.004545  -0.004428  35.751900  -0.003127  -0.002923   2.520930   8.221240   4.249900   0.711562   0.040122   7.910300  -1.493920  -3.110730   1.887110  -0.000000   0.000000   0.000000   2.425730   6.896660   0.724581   0.284612   1.647190  -6.920530  -1.032110  -3.519080   0.190719   0.000000   0.000000   0.000000
 -0.959691  89.573600  -0.987198  -2.646640  -5.581940  -5.288740   0.491330   4.154250   0.241366   0.968906   8.310410   0.448661   1.119910  -0.095906  -0.004306   1.839800  -0.194359   5.944070  -2.801290  -0.558537   2.651470 -74.066900  23.404700  -2.071740  -1.956640  -6.564290 -17.454100  15.023700  -9.365160   4.437930  36.502800  30.756100 -61.148300 -34.318400   0.000756   0.000534 -12.159200   0.003989  -0.002255 -30.877800   5.225180  -8.655080 -25.587600  -0.004479  -0.008607 -17.911300  -0.002345  -0.013464 -28.712900   2.216970  -4.039420 -41.978800  -0.001462  -0.001524 -27.957900  -0.003383  -0.004053 -28.588800   1.797180  -3.289810 -38.001300  -0.001342   0.006322 -25.308900  -0.004213  -0.003505 -32.935600   0.697469  -1.073610 -49.413200  -0.005244  -0.003049 -32.909200   0.000970  -0.004946   8.516930   1.039840   8.326120  67.152900  19.875200  -6.216520  -5.148800   1.717320  21.856400  -9.822920 -14.138100   3.990570 -36.362800  26.394900  60.789900  30.119100  -0.002540   0.001501  10.059600  -0.000927   0.002152  29.658000   9.402920  16.003200  25.350600   0.002525  -0.014872  17.745400  -0.008010  -0.005774  28.398400   4.970580   9.103820  42.116800  -0.004148  -0.005100  28.049800  -0.012564  -0.007567  28.284600   2.189250   4.059290  34.756000  -0.000848  -0.003333  23.147500  -0.007061  -0.015258  35.653800   0.084793   0.114656  53.481700  -0.004369  -0.004290  35.618800  -0.003042  -0.002834   2.531620   8.258540   4.261400   0.705744   0.106319   7.922780  -1.490470  -3.167120   1.897310  -0.000000   0.000000   0.000000   2.439150   6.962340   0.725107   0.276334   1.649000  -6.920340  -1.018730  -3.519720   0.229714  -0.000000   0.000000  -0.000000
 -0.948773  89.573600  -0.974802  -2.673900  -5.648110  -5.339310   0.499256   4.214060   0.216379   0.986521   8.429830   0.397174   1.096730  -0.102942  -0.004201   1.801550  -0.208608   6.048730  -2.800320  -0.599365   2.676530 -74.049100  23.512000  -2.092020  -1.993500  -6.574840 -17.442700  14.992700  -9.332260   4.426870  36.513400  30.799700 -61.200900 -34.326600   0.000624   0.000465 -12.163300   0.003938  -0.002351 -30.886100   5.228480  -8.659630 -25.591800  -0.004361  -0.008679 -17.914700  -0.002270  -0.013570 -28.712100   2.213500  -4.033170 -41.937600  -0.001300  -0.001526 -27.930500  -0.003280  -0.003930 -28.587300   1.797280  -3.293270 -37.991300  -0.001156   0.006326 -25.302200  -0.004086  -0.003403 -32.930500   0.697484  -1.073680 -49.405600  -0.005148  -0.002943 -32.904100   0.000970  -0.004866   8.532830   0.924529   8.382860  66.979800  19.791600  -6.422420  -5.683860   2.072610  23.067300  -9.430160 -13.432800   4.289600 -36.706800  26.682700  61.019300  29.835900  -0.002488   0.001472   9.917960  -0.000909   0.002109  29.427100   9.388230  16.133700  25.167900   0.002496  -0.014891  17.617500  -0.008029  -0.005739  28.387200   4.994580   9.151280  41.629300  -0.004116  -0.005129  27.725100  -0.012598  -0.009903  28.241300   2.215120   4.114940  34.391000  -0.000812  -0.003351  22.904400  -0.007066  -0.015260  35.512500   0.118912   0.162753  53.270000  -0.004209  -0.004192  35.477800  -0.002978  -0.002748   2.539130   8.337010   4.279540   0.703974   0.104603   7.939170  -1.483360  -3.188100   1.908000  -0.000000   0.000000   0.000000   2.454650   7.040880   0.729810   0.266926   1.646580  -6.919040  -1.004630  -3.519740   0.270128   0.000000   0.000000  -0.000000
